<svg width="20" height="20" viewBox="0 0 20 20" fill="none" xmlns="http://www.w3.org/2000/svg">
<path fill-rule="evenodd" clip-rule="evenodd" d="M6.04187 5C6.04187 5.69036 6.60151 6.25 7.29187 6.25C7.98223 6.25 8.54187 5.69036 8.54187 5C8.54187 4.30964 7.98223 3.75 7.29187 3.75C6.60151 3.75 6.04187 4.30964 6.04187 5ZM6.04187 10C6.04187 10.6904 6.60151 11.25 7.29187 11.25C7.98223 11.25 8.54187 10.6904 8.54187 10C8.54187 9.30964 7.98223 8.75 7.29187 8.75C6.60151 8.75 6.04187 9.30964 6.04187 10ZM7.29187 16.25C6.60151 16.25 6.04187 15.6904 6.04187 15C6.04187 14.3096 6.60151 13.75 7.29187 13.75C7.98223 13.75 8.54187 14.3096 8.54187 15C8.54187 15.6904 7.98223 16.25 7.29187 16.25ZM11.4585 5C11.4585 5.69036 12.0182 6.25 12.7085 6.25C13.3989 6.25 13.9585 5.69036 13.9585 5C13.9585 4.30964 13.3989 3.75 12.7085 3.75C12.0182 3.75 11.4585 4.30964 11.4585 5ZM11.4585 10C11.4585 10.6904 12.0182 11.25 12.7085 11.25C13.3989 11.25 13.9585 10.6904 13.9585 10C13.9585 9.30964 13.3989 8.75 12.7085 8.75C12.0182 8.75 11.4585 9.30964 11.4585 10ZM12.7085 16.25C12.0182 16.25 11.4585 15.6904 11.4585 15C11.4585 14.3096 12.0182 13.75 12.7085 13.75C13.3989 13.75 13.9585 14.3096 13.9585 15C13.9585 15.6904 13.3989 16.25 12.7085 16.25Z" fill="#777777"/>
</svg>
