<svg width="20" height="20" viewBox="0 0 20 20" fill="none" xmlns="http://www.w3.org/2000/svg">
<path fill-rule="evenodd" clip-rule="evenodd" d="M6.04199 5C6.04199 5.69036 6.60164 6.25 7.29199 6.25C7.98235 6.25 8.54199 5.69036 8.54199 5C8.54199 4.30964 7.98235 3.75 7.29199 3.75C6.60164 3.75 6.04199 4.30964 6.04199 5ZM6.04199 10C6.04199 10.6904 6.60164 11.25 7.29199 11.25C7.98235 11.25 8.54199 10.6904 8.54199 10C8.54199 9.30964 7.98235 8.75 7.29199 8.75C6.60164 8.75 6.04199 9.30964 6.04199 10ZM7.29199 16.25C6.60164 16.25 6.04199 15.6904 6.04199 15C6.04199 14.3096 6.60164 13.75 7.29199 13.75C7.98235 13.75 8.54199 14.3096 8.54199 15C8.54199 15.6904 7.98235 16.25 7.29199 16.25ZM11.4587 5C11.4587 5.69036 12.0183 6.25 12.7087 6.25C13.399 6.25 13.9587 5.69036 13.9587 5C13.9587 4.30964 13.399 3.75 12.7087 3.75C12.0183 3.75 11.4587 4.30964 11.4587 5ZM11.4587 10C11.4587 10.6904 12.0183 11.25 12.7087 11.25C13.399 11.25 13.9587 10.6904 13.9587 10C13.9587 9.30964 13.399 8.75 12.7087 8.75C12.0183 8.75 11.4587 9.30964 11.4587 10ZM12.7087 16.25C12.0183 16.25 11.4587 15.6904 11.4587 15C11.4587 14.3096 12.0183 13.75 12.7087 13.75C13.399 13.75 13.9587 14.3096 13.9587 15C13.9587 15.6904 13.399 16.25 12.7087 16.25Z" fill="#777777"/>
</svg>
