<svg width="27" height="27" viewBox="0 0 27 27" fill="none" xmlns="http://www.w3.org/2000/svg">
<path d="M12.4626 22.605C12.4626 22.8998 12.7015 23.1388 12.9964 23.1388H14.064C14.3588 23.1388 14.5978 22.8998 14.5978 22.605V14.5979H22.6049C22.8997 14.5979 23.1387 14.3589 23.1387 14.0641V12.9965C23.1387 12.7016 22.8997 12.4626 22.6049 12.4626H14.5978V4.45553C14.5978 4.16072 14.3588 3.92172 14.064 3.92172H12.9964C12.7016 3.92172 12.4626 4.16072 12.4626 4.45553V12.4626H4.45544C4.16063 12.4626 3.92163 12.7016 3.92163 12.9965V14.0641C3.92163 14.3589 4.16062 14.5979 4.45544 14.5979H12.4626V22.605Z" fill="#AAAAAA"/>
</svg>
